<?xml version="1.0" standalone="no"?>
<!DOCTYPE svg PUBLIC "-//W3C//DTD SVG 20010904//EN"
 "http://www.w3.org/TR/2001/REC-SVG-20010904/DTD/svg10.dtd">
<svg version="1.0" xmlns="http://www.w3.org/2000/svg"
 width="1024.000000pt" height="1024.000000pt" viewBox="0 0 1024.000000 1024.000000"
 preserveAspectRatio="xMidYMid meet">
<metadata>
Created by potrace 1.16, written by Peter Selinger 2001-2019
</metadata>
<g transform="translate(0.000000,1024.000000) scale(0.100000,-0.100000)"
fill="#000000" stroke="none">
<path d="M0 5120 l0 -5120 5120 0 5120 0 0 5120 0 5120 -2281 0 -2281 0 114
-119 c130 -136 203 -234 335 -453 227 -374 394 -763 463 -1076 24 -107 26
-270 5 -362 -28 -119 -98 -281 -199 -458 -20 -35 -36 -65 -36 -67 0 -9 309
-162 451 -225 88 -39 180 -84 204 -100 94 -65 146 -146 263 -410 114 -258 237
-611 244 -700 3 -29 0 -35 -17 -35 -16 0 -26 19 -56 120 -78 255 -188 533
-294 747 -102 205 -111 213 -345 314 -122 52 -507 242 -530 261 -5 5 -2 11
100 188 186 321 217 506 137 795 -93 334 -249 674 -475 1038 -43 68 -99 153
-127 190 -65 87 -212 240 -290 302 l-63 50 -452 0 -452 0 -52 -42 c-87 -71
-194 -179 -265 -268 -285 -358 -579 -977 -656 -1381 -21 -112 -19 -229 5 -325
22 -85 115 -282 204 -433 31 -51 56 -99 56 -106 0 -15 -350 -189 -564 -280
-96 -42 -153 -73 -185 -102 -104 -92 -267 -453 -433 -958 -27 -82 -37 -100
-53 -100 -30 0 -23 32 64 295 142 424 285 715 400 817 38 33 119 74 271 138
74 31 201 90 281 132 l146 75 -44 77 c-68 119 -149 288 -179 376 -37 107 -45
288 -19 415 44 220 117 430 241 693 197 421 419 746 638 935 l49 42 -2282 0
-2281 0 0 -5120z m5400 4095 c320 -43 545 -123 758 -268 195 -134 281 -316
252 -535 -29 -219 -200 -548 -470 -907 -113 -149 -270 -316 -294 -313 -43 6
-28 37 66 135 119 126 197 226 343 443 122 183 236 397 273 515 67 213 41 383
-80 511 -168 179 -502 318 -868 364 -109 13 -421 13 -529 0 -108 -14 -332 -65
-430 -97 -172 -58 -348 -160 -435 -253 -121 -129 -155 -331 -90 -528 46 -139
175 -376 327 -602 107 -159 158 -224 273 -347 103 -110 121 -143 83 -151 -21
-4 -203 186 -290 304 -238 321 -422 662 -466 866 -16 78 -13 209 8 283 18 66
67 156 115 212 145 169 493 315 879 367 135 19 443 19 575 1z m-713 -228 c28
-8 77 -29 108 -48 66 -40 185 -152 185 -174 0 -9 -11 -21 -25 -27 -23 -10 -30
-6 -98 59 -136 129 -232 157 -385 111 -48 -14 -76 -18 -83 -11 -18 18 1 41 51
62 96 41 165 49 247 28z m1096 -19 c55 -26 73 -52 44 -64 -7 -2 -42 4 -78 16
-78 24 -128 25 -199 4 -72 -21 -92 -35 -182 -122 -66 -65 -79 -74 -92 -62 -26
21 -18 49 30 100 56 60 125 105 207 137 85 32 188 28 270 -9z m-1005 -287 c45
-23 104 -94 96 -115 -9 -25 -115 -85 -161 -92 -61 -9 -159 10 -253 48 -106 43
-110 48 -63 87 43 36 124 77 180 91 59 14 153 6 201 -19z m914 2 c73 -28 148
-87 148 -115 0 -18 -130 -71 -219 -89 -72 -15 -161 -2 -231 34 -57 29 -61 51
-15 104 79 93 187 115 317 66z m-728 -458 c19 -14 19 -16 -7 -67 -40 -78 -42
-74 66 -117 15 -6 36 -24 45 -41 27 -47 42 -46 87 5 27 31 55 50 88 61 56 19
59 33 17 95 -35 53 -36 55 -9 69 28 15 62 -8 89 -60 38 -74 24 -117 -47 -154
l-47 -23 29 -19 c24 -15 48 -19 130 -19 119 0 156 16 247 101 57 54 72 62 83
44 18 -29 -87 -140 -171 -180 -93 -46 -290 -34 -338 19 -18 20 -19 20 -50 -3
-17 -14 -40 -25 -51 -27 -30 -4 -82 10 -95 26 -10 12 -18 12 -50 -5 -64 -33
-161 -46 -241 -32 -87 15 -136 40 -190 95 -65 66 -75 85 -57 103 13 13 23 7
85 -54 59 -58 79 -71 123 -82 63 -15 191 -9 240 12 l35 15 -44 18 c-72 30 -83
83 -36 176 32 63 39 67 69 44z m-152 -411 c24 -13 55 -15 147 -13 64 2 117 1
119 -3 12 -37 -43 -61 -138 -61 -112 0 -193 35 -177 78 8 19 11 19 49 -1z
m473 -7 c55 0 116 3 135 5 27 2 35 -1 38 -15 4 -22 -61 -53 -134 -62 -98 -13
-207 27 -190 70 4 12 12 14 28 8 13 -4 68 -7 123 -6z m-120 -162 c37 -75 40
-86 40 -165 0 -66 -6 -103 -28 -167 -35 -100 -51 -117 -80 -83 -42 52 -90 172
-95 241 -4 63 -2 69 42 153 25 48 49 92 52 97 12 21 30 1 69 -76z m275 -660
c553 -93 1044 -400 1332 -835 219 -329 332 -706 332 -1100 -1 -422 -106 -762
-349 -1125 -186 -278 -448 -504 -760 -655 -921 -448 -1993 -152 -2558 705
-132 200 -250 488 -289 705 -41 231 -34 522 18 770 113 534 383 936 821 1223
270 176 530 272 858 317 167 23 443 21 595 -5z m273 -4370 c85 -22 143 -53
201 -106 l51 -48 -57 -57 -57 -58 -46 43 c-64 59 -116 81 -195 81 -111 0 -202
-59 -258 -165 -22 -43 -26 -63 -27 -140 0 -73 4 -99 23 -140 31 -68 83 -118
155 -150 107 -49 228 -24 311 64 17 17 35 31 41 31 6 0 36 -22 66 -49 l54 -49
-49 -51 c-113 -115 -299 -160 -457 -111 -143 44 -250 146 -301 289 -27 74 -30
222 -5 302 68 226 325 373 550 314z m-1706 -287 c126 -160 234 -293 241 -296
9 -3 12 64 12 291 l0 295 38 -2 c20 -2 56 -3 80 -4 l42 -2 0 -450 0 -450 -70
0 -70 0 -37 48 c-21 27 -123 159 -228 295 -104 135 -193 246 -197 246 -5 1 -8
-132 -8 -294 l0 -295 -80 0 -80 0 -2 451 c-2 248 -1 453 1 455 2 2 33 4 67 4
l63 0 228 -292z m883 -163 l0 -456 -77 3 -78 3 -3 438 c-2 242 -1 445 2 453 4
10 25 14 81 14 l75 0 0 -455z m-2098 137 l3 -309 30 -49 c56 -90 171 -121 266
-71 34 18 51 36 74 82 l30 59 3 298 3 298 80 0 79 0 0 -320 c0 -351 -3 -372
-62 -458 -87 -126 -291 -176 -463 -111 -79 30 -153 103 -185 184 -23 58 -24
73 -28 368 -2 169 -1 315 2 323 4 10 25 14 85 14 l80 0 3 -308z m3990 -62 c76
-201 151 -402 168 -448 l30 -83 -87 3 -86 3 -38 100 -37 100 -169 3 -169 2
-39 -105 -40 -105 -88 0 c-68 0 -88 3 -84 13 32 77 66 164 188 477 77 201 145
375 150 388 8 21 14 23 86 20 l77 -3 138 -365z m588 -5 l0 -375 200 0 200 0 0
-75 0 -75 -280 0 -280 0 0 450 0 450 80 0 80 0 0 -375z m-5248 -930 c25 -9 60
-31 79 -51 l33 -34 -31 -31 -31 -32 -41 33 c-87 70 -213 44 -260 -53 -28 -57
-28 -137 0 -194 50 -103 181 -130 269 -56 l32 26 31 -31 c30 -31 31 -32 12
-52 -54 -60 -158 -89 -250 -70 -193 40 -283 263 -175 433 66 105 210 153 332
112z m358 -81 c81 -146 68 -144 139 -16 l63 112 49 0 c27 0 49 -4 49 -9 0 -4
-39 -77 -87 -162 l-88 -153 -3 -118 -4 -118 -46 0 -47 0 3 111 3 111 -90 159
c-50 87 -91 162 -91 166 0 5 22 8 50 8 l50 0 50 -91z m748 73 c72 -39 93 -136
43 -206 l-22 -31 30 -25 c78 -66 61 -204 -32 -252 -24 -12 -69 -17 -184 -21
l-153 -5 -1 249 c0 137 -2 258 -5 269 -9 46 -2 47 149 43 110 -3 149 -8 175
-21z m617 -27 l0 -45 -129 -5 -130 -5 0 -60 -1 -60 117 -3 c114 -3 118 -3 124
-26 3 -13 4 -35 2 -47 -2 -20 -8 -24 -33 -22 -16 1 -72 0 -123 -3 l-93 -6 3
-66 3 -67 138 -3 138 -3 -3 -42 -3 -42 -187 -3 -188 -2 0 280 0 280 183 -2
182 -3 0 -45z m472 20 c50 -28 83 -86 83 -146 0 -39 -32 -124 -47 -124 -4 -1
-19 -9 -31 -20 l-24 -20 56 -106 c31 -59 56 -109 56 -111 0 -2 -25 -3 -55 -3
l-54 0 -53 103 -53 102 -47 3 -48 3 0 -105 0 -106 -55 0 -55 0 0 281 0 281
143 -4 c128 -3 146 -6 184 -28z m506 16 c18 -8 43 -24 57 -35 l25 -20 -37 -38
-37 -37 -25 23 c-55 52 -166 34 -166 -27 0 -49 19 -63 142 -96 99 -28 145 -86
136 -171 -7 -56 -48 -112 -97 -132 -83 -35 -235 -8 -292 53 l-23 24 29 30 c16
17 33 30 38 30 4 0 24 -12 44 -27 26 -20 50 -28 93 -31 53 -4 61 -2 84 21 50
50 25 106 -56 127 -144 37 -191 68 -203 133 -15 77 20 142 89 173 41 18 158
18 199 0z m605 -38 l3 -47 -133 -3 -133 -3 -3 -29 c-2 -16 -1 -44 3 -63 l6
-33 114 0 c113 0 115 0 121 -24 14 -58 9 -61 -121 -66 l-120 -5 0 -70 0 -70
132 -3 c131 -3 133 -3 139 -26 3 -14 4 -33 2 -43 -3 -17 -17 -18 -188 -18
l-185 0 -3 265 c-1 146 0 270 3 278 3 10 44 12 182 10 l178 -3 3 -47z m534 19
c25 -14 52 -37 61 -50 15 -23 15 -26 -6 -44 -39 -35 -46 -35 -87 -2 -46 37
-120 50 -170 29 -43 -18 -98 -83 -106 -125 -12 -66 0 -140 30 -179 37 -49 74
-66 145 -66 56 0 64 3 100 36 l40 35 37 -34 38 -35 -30 -26 c-42 -38 -71 -52
-138 -66 -172 -35 -336 93 -336 265 0 142 62 234 189 282 59 22 179 12 233
-20z m298 -157 c0 -150 3 -197 15 -220 23 -44 53 -60 112 -60 47 0 58 4 91 34
l37 34 3 202 3 201 47 -3 47 -3 -2 -209 -2 -208 -28 -46 c-40 -64 -96 -92
-185 -92 -77 0 -129 17 -171 58 -58 55 -62 69 -65 295 l-4 207 51 0 51 0 0
-190z m830 168 c85 -43 116 -154 68 -239 -12 -22 -24 -39 -27 -39 -3 0 -17 -9
-30 -19 l-24 -18 57 -106 c31 -58 56 -108 56 -111 0 -3 -25 -6 -55 -6 l-54 0
-53 103 -53 102 -47 3 -47 3 -3 -103 -3 -103 -50 0 -50 0 -3 278 -2 277 138 0
c123 0 143 -2 182 -22z m340 -253 l0 -275 -50 0 -50 0 0 268 c0 148 3 272 7
275 3 4 26 7 50 7 l43 0 0 -275z m538 223 l3 -47 -83 -3 -83 -3 -5 -225 -5
-225 -45 0 c-40 0 -44 2 -45 25 -1 14 -2 116 -3 228 l-2 202 -85 0 -85 0 0 50
0 50 218 -2 217 -3 3 -47z m230 -40 c83 -151 70 -149 138 -20 l59 112 53 0
c28 0 52 -2 52 -5 0 -10 -31 -67 -108 -198 l-75 -129 6 -114 6 -114 -49 0 -50
0 0 114 0 114 -95 162 c-52 89 -95 164 -95 166 0 2 24 4 53 4 l53 0 52 -92z"/>
<path d="M4562 8630 c-42 -9 -102 -39 -102 -50 0 -17 140 -55 200 -55 69 0
165 36 157 59 -13 40 -158 67 -255 46z"/>
<path d="M5465 8621 c-22 -10 -48 -27 -58 -38 -17 -20 -16 -20 40 -39 78 -25
172 -23 246 6 56 21 58 23 41 41 -42 46 -196 64 -269 30z"/>
<path d="M5086 7571 c-23 -45 -27 -64 -24 -110 2 -31 15 -78 28 -106 l23 -50
19 60 c27 81 27 158 2 215 l-21 45 -27 -54z"/>
<path d="M4935 6939 c-484 -47 -906 -246 -1236 -585 -133 -137 -208 -243 -298
-424 -128 -259 -190 -485 -213 -778 -25 -332 30 -614 182 -927 193 -397 490
-701 877 -896 545 -275 1153 -279 1708 -10 382 184 648 441 860 830 121 224
181 409 210 651 22 186 23 182 -31 119 -61 -70 -794 -799 -804 -799 -9 0 -20
842 -10 853 4 4 174 8 378 7 204 0 396 3 427 6 l56 7 -3 61 -3 61 -425 5 -425
5 0 205 0 205 394 3 393 2 -7 38 c-3 20 -12 48 -18 62 l-12 25 -365 3 c-201 1
-371 5 -377 7 -10 3 -13 53 -13 204 0 172 2 200 16 205 9 3 132 6 275 6 142 0
259 3 259 6 0 13 -90 132 -165 217 -145 166 -351 319 -580 432 -330 163 -685
229 -1050 194z m1114 -863 c8 -9 11 -73 9 -207 l-3 -194 -1065 -5 c-586 -3
-1071 -3 -1078 -1 -10 2 -12 49 -10 205 l3 201 1055 5 c580 3 1060 6 1066 8 6
1 17 -4 23 -12z m-1 -747 l2 -207 -622 -6 c-343 -4 -825 -6 -1073 -4 l-450 3
-3 207 -2 208 437 3 c241 1 724 2 1073 2 l635 0 3 -206z m5 -366 c10 -38 6
-367 -5 -380 -8 -10 -219 -13 -1079 -13 l-1069 0 0 198 c0 109 3 202 7 205 3
4 487 7 1074 7 1008 0 1068 -1 1072 -17z m-9 -531 c8 -13 10 -398 2 -410 -8
-13 -1945 -18 -2076 -6 l-70 7 0 202 c0 111 3 205 7 208 9 10 2131 9 2137 -1z"/>
<path d="M3955 6020 c-1 -3 -3 -71 -4 -152 l-2 -148 1010 0 c555 0 1016 3
1025 6 14 5 16 29 16 156 l0 150 -1021 -3 c-561 -2 -1022 -6 -1024 -9z"/>
<path d="M3957 5473 c-4 -3 -7 -73 -7 -155 l0 -148 1025 0 1025 0 0 155 0 155
-1018 0 c-560 0 -1022 -3 -1025 -7z"/>
<path d="M4392 4922 l-443 -2 3 -148 3 -147 1020 0 1020 0 0 150 0 150 -580 0
c-319 0 -779 -1 -1023 -3z"/>
<path d="M3957 4373 c-4 -3 -7 -73 -7 -155 l0 -148 1025 0 1025 0 0 155 0 155
-1018 0 c-560 0 -1022 -3 -1025 -7z"/>
<path d="M6236 5883 c-5 -113 -3 -149 6 -155 12 -7 678 -12 678 -4 0 13 -67
161 -102 227 l-43 79 -266 0 -266 0 -7 -147z"/>
<path d="M6230 5325 l0 -155 400 0 400 0 0 63 c-1 76 -24 213 -40 233 -11 12
-73 14 -386 14 l-374 0 0 -155z"/>
<path d="M6235 4919 c-4 -6 -5 -165 -3 -354 l3 -344 59 67 c33 37 187 194 343
349 156 156 283 285 283 288 0 11 -679 5 -685 -6z"/>
<path d="M6557 2343 c-11 -17 -97 -251 -97 -263 0 -6 39 -10 106 -10 97 0 106
1 99 18 -4 9 -20 51 -35 92 -58 153 -67 173 -73 163z"/>
<path d="M3012 1158 l3 -63 66 0 c75 0 109 19 109 62 0 44 -32 63 -110 63
l-71 0 3 -62z"/>
<path d="M3022 991 c-9 -5 -12 -27 -10 -72 l3 -64 52 -3 c79 -5 128 12 143 49
11 27 11 33 -7 57 -11 15 -31 30 -44 33 -35 10 -122 10 -137 0z"/>
<path d="M4100 1140 l0 -80 70 0 c62 0 74 3 95 25 16 15 25 36 25 55 0 19 -9
40 -25 55 -21 22 -33 25 -95 25 l-70 0 0 -80z"/>
<path d="M6876 1143 l3 -78 72 -3 c63 -3 75 0 95 19 33 31 32 82 -1 114 -21
22 -33 25 -99 25 l-74 0 4 -77z"/>
</g>
</svg>
